# xmcd
#
# Track frame offsets: 
#        150
#        17842
#        36749
#        49323
#        63237
#        84898
#        108834
#        118731
#        136109
#        165424
#        186330
#        197853
#
# Disc length: 2924 seconds
#
# Revision: 3
# Processed by: cddbd v1.5.2PL0 Copyright (c) Steve Scherf et al.
# Submitted via: ExactAudioCopy v1.0b3
#
DISCID=a20b6a0c
DTITLE=甲斐バンド - 誘惑 (紙ジャケット仕様) TOCT-26455
DYEAR=2007
DGENRE=JPop
TTITLE0=カーテン
TTITLE1=ちんぴら
TTITLE2=悲しき愛奴(サーファー)
TTITLE3=からくり
TTITLE4=翼あるもの
TTITLE5=嵐の季節
TTITLE6=バランタインの日々
TTITLE7=二色の灯
TTITLE8=シネマ・クラブ
TTITLE9=LADY
TTITLE10=汽笛の響き (Bonus Track)
TTITLE11=翼あるもの(TV MIX) (Bonus Track)
EXTD=YEAR: 1978
EXTT0=
EXTT1=
EXTT2=
EXTT3=
EXTT4=
EXTT5=
EXTT6=
EXTT7=
EXTT8=
EXTT9=
EXTT10=
EXTT11=
PLAYORDER=
